<?xml version="1.0" encoding="utf-8"?>
<!-- Generator: Adobe Illustrator 15.1.0, SVG Export Plug-In . SVG Version: 6.00 Build 0)  -->
<!DOCTYPE svg PUBLIC "-//W3C//DTD SVG 1.1//EN" "http://www.w3.org/Graphics/SVG/1.1/DTD/svg11.dtd">
<svg version="1.1" id="Layer_1" xmlns="http://www.w3.org/2000/svg" xmlns:xlink="http://www.w3.org/1999/xlink" x="0px" y="0px"
	 width="1000px" height="1000px" viewBox="0 0 1000 1000" enable-background="new 0 0 1000 1000" xml:space="preserve">
<path fill="#FFD166" d="M500,850c-193,0-350-157.025-350-350.001C150,307.026,307,150,500,150s350,157.026,350,349.999
	C850,692.975,693,850,500,850z"/>
<g>
	<path fill="#282138" d="M671.55,499.999c0,27.421-6.485,53.42-18.039,76.473H346.488c-11.525-23.053-18.064-49.052-18.064-76.473
		c0-25.662,5.712-50.162,15.92-72.077L500,576.058l155.656-148.135C665.864,449.837,671.55,474.337,671.55,499.999z"/>
	<path fill="#282138" d="M604.485,364.011L500,463.509l-104.486-99.498c18.246-14.059,39.334-24.474,62.283-30.289L500,373.883
		l42.203-40.161C565.126,339.537,586.24,349.952,604.485,364.011z"/>
	<path fill="#282138" d="M732.153,550.989C708.816,657.775,613.764,737.684,500,737.684c-131.285,0-237.709-106.424-237.709-237.685
		c0-131.259,106.424-237.683,237.709-237.683c113.764,0,208.816,79.908,232.153,186.694h93.32
		C800.923,291.52,664.313,170.571,500,170.571c-181.629,0-329.454,147.8-329.454,329.428c0,181.655,147.825,329.43,329.454,329.43
		c164.313,0,300.923-120.947,325.475-278.438L732.153,550.989L732.153,550.989z"/>
</g>
</svg>
