<?xml version="1.0" encoding="utf-8"?>
<!-- Generator: Adobe Illustrator 15.1.0, SVG Export Plug-In . SVG Version: 6.00 Build 0)  -->
<!DOCTYPE svg PUBLIC "-//W3C//DTD SVG 1.1//EN" "http://www.w3.org/Graphics/SVG/1.1/DTD/svg11.dtd">
<svg version="1.1" id="Layer_1" xmlns="http://www.w3.org/2000/svg" xmlns:xlink="http://www.w3.org/1999/xlink" x="0px" y="0px"
	 width="1359.432px" height="359.766px" viewBox="0 0 1359.432 359.766" enable-background="new 0 0 1359.432 359.766"
	 xml:space="preserve">
<path fill="#FFD166" d="M180.355,270.809c-50.14,0-90.927-40.795-90.927-90.927c0-50.135,40.787-90.928,90.927-90.928
	s90.926,40.793,90.926,90.928C271.281,230.014,230.495,270.809,180.355,270.809z"/>
<g>
	<path fill="#282138" d="M224.921,179.883c0,7.123-1.685,13.877-4.686,19.867h-79.762c-2.994-5.99-4.693-12.744-4.693-19.867
		c0-6.668,1.484-13.03,4.136-18.727l40.438,38.484l40.438-38.484C223.445,166.852,224.921,173.215,224.921,179.883z"/>
	<path fill="#282138" d="M207.5,144.555l-27.145,25.848l-27.145-25.848c4.74-3.652,10.219-6.359,16.181-7.869l10.964,10.434
		l10.964-10.434C197.274,138.195,202.759,140.902,207.5,144.555z"/>
	<path fill="#282138" d="M240.666,193.129c-6.063,27.742-30.756,48.5-60.311,48.5c-34.107,0-61.755-27.646-61.755-61.746
		c0-34.102,27.647-61.748,61.755-61.748c29.555,0,54.248,20.761,60.311,48.502h24.244c-6.378-40.915-41.868-72.336-84.555-72.336
		c-47.186,0-85.589,38.396-85.589,85.582c0,47.191,38.403,85.582,85.589,85.582c42.687,0,78.177-31.422,84.555-72.336H240.666z"/>
</g>
<g>
	<path fill="#FFD166" d="M317.042,179.607c0-7.922,1.162-15.033,3.498-21.324c2.323-6.291,5.52-11.615,9.588-15.979
		c4.055-4.356,8.81-7.68,14.26-9.956c5.452-2.281,11.3-3.416,17.537-3.416c5.949,0,11.279,1.241,15.979,3.713
		c4.707,2.477,8.594,5.356,11.67,8.619l-9.515,10.702c-2.577-2.479-5.271-4.438-8.104-5.875c-2.82-1.43-6.117-2.155-9.877-2.155
		c-3.968,0-7.634,0.825-11.004,2.459c-3.37,1.631-6.258,3.967-8.694,6.987c-2.424,3.027-4.304,6.713-5.646,11.07
		c-1.336,4.365-2.001,9.266-2.001,14.717c0,11.092,2.424,19.787,7.277,26.078c4.848,6.291,11.347,9.433,19.471,9.433
		c4.356,0,8.178-0.832,11.446-2.523c3.271-1.687,6.291-4.055,9.064-7.123l9.514,10.541c-3.969,4.564-8.447,8.057-13.455,10.48
		c-5.002,2.43-10.629,3.639-16.864,3.639c-6.15,0-11.919-1.088-17.322-3.271c-5.397-2.176-10.077-5.393-14.039-9.662
		c-3.968-4.256-7.083-9.506-9.365-15.743C318.177,194.773,317.042,187.636,317.042,179.607z"/>
	<path fill="#FFD166" d="M406.07,154.947h14.119l1.188,12.924h0.598c2.578-4.76,5.693-8.406,9.359-10.93
		c3.666-2.519,7.439-3.787,11.299-3.787c3.465,0,6.238,0.496,8.319,1.49l-2.976,14.864c-1.281-0.401-2.471-0.69-3.564-0.899
		c-1.088-0.193-2.43-0.289-4.016-0.289c-2.873,0-5.895,1.115-9.063,3.338c-3.169,2.229-5.895,6.123-8.178,11.676v44.58H406.07
		V154.947z"/>
	<path fill="#FFD166" d="M464.251,243.744c0.934,0.242,1.859,0.363,2.746,0.363c3.867,0,6.963-1.162,9.292-3.484
		c2.323-2.33,4.082-5.33,5.277-8.996l1.336-4.604l-28.688-72.074h17.39l12.636,35.813c1.088,3.168,2.162,6.518,3.196,10.022
		c1.047,3.523,2.106,7.016,3.194,10.486h0.591c0.899-3.369,1.813-6.808,2.753-10.326c0.946-3.523,1.859-6.922,2.753-10.185
		l10.997-35.813h16.496l-26.453,76.229c-1.482,4.164-3.12,7.89-4.907,11.152c-1.779,3.271-3.84,6.076-6.162,8.398
		c-2.33,2.33-5.01,4.108-8.03,5.358c-3.021,1.234-6.513,1.847-10.474,1.847c-1.987,0-3.721-0.121-5.203-0.369
		c-1.484-0.242-2.928-0.617-4.317-1.115l3.129-13.381C462.493,243.275,463.305,243.49,464.251,243.744z"/>
	<path fill="#FFD166" d="M553.943,233.861v22.889h-17.095V154.947h14.125l1.183,7.727h0.604c3.062-2.577,6.484-4.813,10.244-6.692
		c3.773-1.879,7.683-2.826,11.75-2.826c4.553,0,8.594,0.873,12.111,2.598c3.512,1.746,6.514,4.236,8.997,7.515
		c2.471,3.264,4.351,7.184,5.64,11.729c1.289,4.566,1.935,9.668,1.935,15.314c0,6.244-0.873,11.815-2.605,16.731
		c-1.73,4.894-4.035,9.01-6.908,12.318c-2.873,3.33-6.197,5.883-9.957,7.662c-3.766,1.785-7.68,2.672-11.742,2.672
		c-3.169,0-6.345-0.691-9.514-2.082c-3.169-1.377-6.244-3.363-9.211-5.941L553.943,233.861z M553.943,209.484
		c2.678,2.283,5.256,3.867,7.733,4.76c2.472,0.887,4.808,1.33,6.982,1.33c4.854,0,8.916-2.102,12.19-6.313
		c3.265-4.209,4.902-10.473,4.902-18.805c0-7.332-1.25-13.024-3.721-17.094c-2.478-4.063-6.485-6.096-12.045-6.096
		c-5.144,0-10.493,2.731-16.045,8.178v34.04H553.943z"/>
	<path fill="#FFD166" d="M623.203,168.469h-10.4v-12.782l11.293-0.738l2.075-19.928h14.273v19.928h18.584v13.521h-18.584v34.771
		c0,8.527,3.425,12.783,10.259,12.783c1.283,0,2.592-0.142,3.935-0.449c1.344-0.289,2.553-0.687,3.646-1.182l2.968,12.629
		c-1.98,0.696-4.237,1.313-6.761,1.858c-2.525,0.543-5.225,0.813-8.099,0.813c-4.264,0-7.854-0.646-10.774-1.928
		c-2.928-1.289-5.306-3.097-7.138-5.425c-1.832-2.323-3.169-5.108-4.016-8.325c-0.846-3.216-1.262-6.81-1.262-10.775V168.469
		L623.203,168.469z"/>
	<path fill="#FFD166" d="M668.091,191.498c0-6.037,0.94-11.44,2.82-16.195c1.88-4.752,4.432-8.772,7.654-12.036
		c3.215-3.277,6.913-5.769,11.069-7.515c4.163-1.725,8.521-2.598,13.086-2.598c4.553,0,8.943,0.873,13.146,2.598
		c4.216,1.746,7.901,4.236,11.07,7.515c3.17,3.264,5.722,7.284,7.66,12.037c1.935,4.754,2.9,10.157,2.9,16.194
		c0,6.041-0.967,11.453-2.9,16.207c-1.938,4.754-4.49,8.769-7.66,12.031c-3.169,3.27-6.854,5.746-11.07,7.438
		c-4.202,1.685-8.594,2.519-13.146,2.519c-4.565,0-8.923-0.834-13.086-2.519c-4.156-1.692-7.854-4.17-11.069-7.438
		c-3.224-3.264-5.774-7.277-7.654-12.031S668.091,197.539,668.091,191.498z M685.628,191.498c0,7.338,1.504,13.205,4.525,17.617
		c3.026,4.404,7.211,6.604,12.567,6.604c5.345,0,9.562-2.2,12.629-6.604c3.074-4.412,4.612-10.279,4.612-17.617
		c0-7.426-1.538-13.342-4.612-17.758c-3.067-4.406-7.284-6.613-12.629-6.613c-5.356,0-9.541,2.207-12.567,6.613
		C687.132,178.156,685.628,184.072,685.628,191.498z"/>
	<path fill="#FFD166" d="M759.051,203.689c3.479,3.264,7.426,5.922,11.884,7.942c4.472,2.033,8.971,3.047,13.521,3.047
		c5.465,0,9.641-1.135,12.568-3.409c2.913-2.283,4.377-5.297,4.377-9.07c0-1.98-0.361-3.666-1.102-5.055
		c-0.752-1.377-1.8-2.601-3.128-3.64c-1.344-1.041-2.955-2.008-4.834-2.895c-1.881-0.894-3.908-1.785-6.084-2.672l-13.239-5.81
		c-2.376-0.979-4.753-2.221-7.13-3.713c-2.377-1.481-4.483-3.262-6.311-5.344c-1.84-2.08-3.33-4.512-4.474-7.277
		c-1.127-2.787-1.704-5.955-1.704-9.52c0-3.861,0.832-7.453,2.456-10.777c1.64-3.315,3.882-6.217,6.769-8.701
		c2.861-2.463,6.285-4.396,10.26-5.793c3.947-1.377,8.313-2.073,13.064-2.073c5.748,0,11.253,1.106,16.503,3.35
		c5.251,2.223,9.763,5.223,13.521,8.981l-8.916,10.998c-3.076-2.577-6.312-4.612-9.735-6.082c-3.425-1.491-7.211-2.243-11.373-2.243
		c-4.659,0-8.338,1.021-11.064,3.049c-2.726,2.035-4.082,4.84-4.082,8.393c0,1.894,0.403,3.498,1.249,4.84
		c0.847,1.33,1.987,2.531,3.425,3.566c1.437,1.039,3.103,1.986,4.969,2.818c1.894,0.848,3.826,1.657,5.813,2.459l13.079,5.504
		c2.874,1.182,5.519,2.571,7.937,4.155c2.431,1.584,4.513,3.41,6.258,5.492c1.73,2.082,3.062,4.492,4.001,7.211
		c0.939,2.732,1.424,5.875,1.424,9.445c0,3.955-0.807,7.682-2.392,11.139c-1.584,3.472-3.881,6.521-6.9,9.146
		c-3.021,2.625-6.688,4.707-10.997,6.244c-4.324,1.53-9.198,2.297-14.65,2.297c-6.524,0-12.836-1.236-18.864-3.713
		c-6.044-2.472-11.4-5.99-16.048-10.549L759.051,203.689z"/>
	<path fill="#FFD166" d="M830.246,191.498c0-6.037,0.993-11.44,2.967-16.195c1.975-4.752,4.66-8.772,8.03-12.036
		c3.37-3.277,7.251-5.769,11.669-7.515c4.404-1.725,9.037-2.598,13.896-2.598c4.754,0,8.891,0.826,12.407,2.457
		c3.505,1.633,6.513,3.639,8.983,6.022l-8.178,10.851c-1.975-1.693-3.948-3.002-5.936-3.949c-1.988-0.938-4.109-1.408-6.393-1.408
		c-5.947,0-10.756,2.207-14.422,6.613c-3.664,4.416-5.49,10.332-5.49,17.758c0,7.338,1.799,13.205,5.41,17.617
		c3.625,4.404,8.299,6.604,14.06,6.604c2.968,0,5.72-0.616,8.245-1.854c2.522-1.24,4.779-2.691,6.768-4.383l7.129,10.842
		c-3.464,3.076-7.291,5.412-11.453,6.996c-4.148,1.584-8.313,2.371-12.475,2.371c-4.955,0-9.588-0.834-13.896-2.519
		c-4.312-1.692-8.058-4.17-11.227-7.438c-3.169-3.264-5.652-7.277-7.426-12.031C831.131,202.951,830.246,197.539,830.246,191.498z"
		/>
	<path fill="#FFD166" d="M899.049,208.295c0-7.828,3.424-13.871,10.259-18.127c6.834-4.264,17.738-7.237,32.696-8.916
		c0-1.887-0.241-3.699-0.738-5.432c-0.496-1.733-1.275-3.262-2.31-4.605c-1.047-1.336-2.377-2.368-4.002-3.121
		c-1.651-0.739-3.705-1.114-6.176-1.114c-3.681,0-7.212,0.69-10.636,2.082c-3.41,1.389-6.701,3.073-9.869,5.055l-6.243-11.441
		c4.055-2.577,8.58-4.813,13.588-6.692c5.009-1.879,10.434-2.826,16.288-2.826c9.197,0,16.046,2.699,20.49,8.104
		c4.472,5.392,6.7,13.207,6.7,23.404v43.252H945.12l-1.329-8.031h-0.443c-3.275,2.781-6.768,5.104-10.485,6.99
		c-3.722,1.887-7.763,2.82-12.112,2.82c-6.445,0-11.669-1.947-15.671-5.869C901.064,219.918,899.049,214.74,899.049,208.295z
		 M915.7,206.953c0,3.275,0.967,5.646,2.899,7.137c1.935,1.484,4.418,2.236,7.493,2.236c2.98,0,5.706-0.699,8.177-2.082
		c2.484-1.391,5.063-3.371,7.734-5.949v-16.354c-4.968,0.598-9.117,1.396-12.486,2.383c-3.371,0.994-6.07,2.107-8.099,3.336
		c-2.041,1.25-3.49,2.666-4.377,4.25C916.143,203.496,915.7,205.174,915.7,206.953z"/>
	<path fill="#FFD166" d="M979.898,154.947h14.111l1.195,9.949h0.591c3.074-3.263,6.418-6.041,10.03-8.318
		c3.611-2.289,7.708-3.424,12.26-3.424c5.357,0,9.643,1.135,12.864,3.424c3.223,2.277,5.666,5.492,7.356,9.648
		c3.466-3.761,7.076-6.884,10.851-9.359c3.76-2.471,7.977-3.713,12.636-3.713c7.723,0,13.428,2.504,17.094,7.514
		c3.665,4.994,5.491,12.152,5.491,21.463v45.783h-17.24v-43.539c0-6.051-0.927-10.307-2.753-12.791
		c-1.826-2.477-4.633-3.713-8.404-3.713c-4.539,0-9.643,3.027-15.296,9.064v50.979h-17.094v-43.539
		c0-6.051-0.912-10.307-2.752-12.791c-1.826-2.477-4.687-3.713-8.541-3.713c-4.563,0-9.668,3.027-15.307,9.064v50.979h-17.095
		v-72.967H979.898z"/>
	<path fill="#FFD166" d="M1106.535,130.717h25.861c14.864,0,26.467,4.009,34.846,12.037c8.365,8.031,12.555,20.063,12.555,36.115
		c0,8.029-1.074,15.105-3.195,21.248c-2.135,6.146-5.209,11.273-9.212,15.389c-4.015,4.109-8.901,7.205-14.648,9.285
		c-5.733,2.082-12.232,3.123-19.47,3.123h-26.735L1106.535,130.717L1106.535,130.717z M1131.188,213.941
		c9.91,0,17.537-2.84,22.896-8.547c5.357-5.699,8.03-14.541,8.03-26.525c0-11.891-2.699-20.563-8.099-26.004
		c-5.411-5.457-13.011-8.178-22.827-8.178h-7.425v69.254H1131.188L1131.188,213.941z"/>
	<path fill="#FFD166" d="M1199.12,130.717h31.058c4.941,0,9.562,0.425,13.831,1.263c4.257,0.846,7.923,2.176,10.984,4.016
		c3.074,1.832,5.479,4.277,7.21,7.353c1.732,3.073,2.604,6.834,2.604,11.299c0,4.651-1.343,8.971-4.015,12.924
		c-2.673,3.969-6.889,6.695-12.622,8.178v0.592c7.022,1.188,12.42,3.691,16.193,7.513c3.76,3.813,5.64,8.989,5.64,15.528
		c0,4.855-0.938,9.064-2.818,12.629c-1.881,3.566-4.485,6.548-7.803,8.916c-3.315,2.386-7.265,4.15-11.815,5.285
		c-4.552,1.136-9.521,1.705-14.864,1.705h-33.583V130.717z M1228.54,170.994c6.835,0,11.763-1.242,14.784-3.727
		c3.021-2.466,4.538-5.982,4.538-10.55c0-4.457-1.559-7.68-4.688-9.659c-3.114-1.976-7.842-2.961-14.18-2.961h-12.635v26.896
		L1228.54,170.994L1228.54,170.994z M1230.917,214.539c7.13,0,12.622-1.342,16.422-4.014c3.813-2.681,5.721-6.789,5.721-12.342
		c0-5.041-1.88-8.795-5.64-11.211c-3.76-2.433-9.266-3.64-16.503-3.64h-14.556v31.205L1230.917,214.539L1230.917,214.539z"/>
</g>
</svg>
