<?xml version="1.0" encoding="utf-8"?>
<!-- Generator: Adobe Illustrator 15.1.0, SVG Export Plug-In . SVG Version: 6.00 Build 0)  -->
<!DOCTYPE svg PUBLIC "-//W3C//DTD SVG 1.1//EN" "http://www.w3.org/Graphics/SVG/1.1/DTD/svg11.dtd">
<svg version="1.1" id="Layer_1" xmlns="http://www.w3.org/2000/svg" xmlns:xlink="http://www.w3.org/1999/xlink" x="0px" y="0px"
	 width="1000px" height="1000px" viewBox="0 0 1000 1000" enable-background="new 0 0 1000 1000" xml:space="preserve">
<g>
	<path fill="#282138" d="M673.539,500c0,27.42-6.486,53.42-18.039,76.473H348.479C336.953,553.42,330.414,527.42,330.414,500
		c0-25.662,5.711-50.162,15.92-72.077L501.99,576.059l155.656-148.136C667.854,449.837,673.539,474.337,673.539,500z"/>
	<path fill="#282138" d="M606.475,364.011L501.99,463.509l-104.486-99.498c18.246-14.059,39.334-24.474,62.283-30.289l42.203,40.161
		l42.203-40.161C567.115,339.537,588.23,349.952,606.475,364.011z"/>
	<path fill="#282138" d="M734.143,550.99C710.807,657.775,615.754,737.684,501.99,737.684
		c-131.285,0-237.709-106.424-237.709-237.684c0-131.259,106.424-237.683,237.709-237.683c113.764,0,208.816,79.908,232.152,186.694
		h93.322C802.912,291.52,666.303,170.571,501.99,170.571c-181.629,0-329.455,147.8-329.455,329.428
		c0,181.655,147.826,329.43,329.455,329.43c164.313,0,300.922-120.949,325.475-278.439H734.143z"/>
</g>
</svg>
