<?xml version="1.0" encoding="utf-8"?>
<!-- Generator: Adobe Illustrator 15.1.0, SVG Export Plug-In . SVG Version: 6.00 Build 0)  -->
<!DOCTYPE svg PUBLIC "-//W3C//DTD SVG 1.1//EN" "http://www.w3.org/Graphics/SVG/1.1/DTD/svg11.dtd">
<svg version="1.1" id="Layer_1" xmlns="http://www.w3.org/2000/svg" xmlns:xlink="http://www.w3.org/1999/xlink" x="0px" y="0px"
	 width="845.947px" height="491.809px" viewBox="0 0 845.947 491.809" enable-background="new 0 0 845.947 491.809"
	 xml:space="preserve">
<g>
	<g>
		<path fill="#FFD166" d="M488.289,177.755c0,10.439-2.47,20.34-6.869,29.115H364.526c-4.388-8.775-6.878-18.676-6.878-29.115
			c0-9.77,2.175-19.098,6.062-27.441l59.264,56.4l59.264-56.4C486.124,158.657,488.289,167.985,488.289,177.755z"/>
		<path fill="#FFD166" d="M462.755,125.979l-39.781,37.883l-39.781-37.883c6.946-5.352,14.976-9.318,23.713-11.531l16.068,15.291
			l16.068-15.291C447.77,116.661,455.809,120.628,462.755,125.979z"/>
		<path fill="#FFD166" d="M511.362,197.169c-8.885,40.656-45.075,71.08-88.389,71.08c-49.984,0-90.504-40.518-90.504-90.494
			c0-49.975,40.52-90.494,90.504-90.494c43.313,0,79.504,30.424,88.389,71.082h35.53C537.545,98.38,485.533,52.331,422.974,52.331
			c-69.152,0-125.435,56.271-125.435,125.424c0,69.162,56.282,125.426,125.435,125.426c62.56,0,114.571-46.049,123.919-106.012
			H511.362z"/>
	</g>
	<g>
		<path fill="#FFD166" d="M59.195,379.677c0-6.045,0.888-11.473,2.674-16.277c1.774-4.805,4.215-8.869,7.314-12.197
			c3.101-3.328,6.729-5.863,10.893-7.604c4.159-1.744,8.628-2.609,13.39-2.609c4.537,0,8.61,0.947,12.196,2.838
			c3.595,1.885,6.565,4.086,8.908,6.578l-7.259,8.168c-1.972-1.887-4.025-3.385-6.191-4.482c-2.152-1.09-4.667-1.648-7.538-1.648
			c-3.031,0-5.829,0.633-8.399,1.881c-2.575,1.244-4.779,3.027-6.639,5.334c-1.852,2.313-3.289,5.127-4.314,8.455
			c-1.016,3.328-1.523,7.074-1.523,11.232c0,8.469,1.851,15.107,5.554,19.908c3.702,4.805,8.662,7.203,14.866,7.203
			c3.327,0,6.242-0.633,8.739-1.93c2.493-1.283,4.801-3.09,6.919-5.434l7.263,8.043c-3.026,3.488-6.445,6.156-10.269,8.004
			c-3.822,1.855-8.119,2.777-12.881,2.777c-4.693,0-9.093-0.828-13.222-2.498c-4.12-1.656-7.693-4.115-10.716-7.371
			c-3.031-3.254-5.412-7.258-7.155-12.02C60.065,391.259,59.195,385.808,59.195,379.677z"/>
		<path fill="#FFD166" d="M127.167,360.854h10.78l0.904,9.863h0.456c1.968-3.633,4.349-6.414,7.147-8.344
			c2.798-1.92,5.679-2.889,8.628-2.889c2.643,0,4.762,0.379,6.346,1.137l-2.269,11.348c-0.978-0.305-1.886-0.529-2.717-0.684
			c-0.835-0.15-1.86-0.221-3.065-0.221c-2.195,0-4.504,0.846-6.923,2.545c-2.42,1.701-4.504,4.672-6.243,8.912v34.037h-13.045
			V360.854z"/>
		<path fill="#FFD166" d="M171.585,428.646c0.715,0.186,1.421,0.275,2.097,0.275c2.953,0,5.313-0.887,7.095-2.656
			c1.773-1.783,3.117-4.072,4.03-6.871l1.02-3.514l-21.9-55.025h13.273l9.647,27.342c0.827,2.416,1.649,4.973,2.438,7.65
			c0.801,2.688,1.609,5.357,2.445,8.004h0.447c0.689-2.57,1.387-5.195,2.102-7.883c0.723-2.691,1.42-5.287,2.101-7.771l8.396-27.342
			h12.597l-20.196,58.199c-1.132,3.176-2.381,6.021-3.749,8.51c-1.356,2.498-2.928,4.639-4.702,6.416
			c-1.782,1.773-3.827,3.135-6.131,4.086c-2.307,0.947-4.977,1.412-7.999,1.412c-1.515,0-2.841-0.092-3.969-0.285
			c-1.137-0.18-2.239-0.469-3.298-0.848l2.389-10.217C170.241,428.288,170.866,428.452,171.585,428.646z"/>
		<path fill="#FFD166" d="M240.06,421.103v17.471h-13.049v-77.719h10.785l0.903,5.898h0.461c2.338-1.969,4.951-3.678,7.823-5.111
			c2.875-1.438,5.863-2.156,8.968-2.156c3.474,0,6.565,0.668,9.247,1.984c2.683,1.33,4.973,3.229,6.867,5.734
			c1.886,2.494,3.323,5.48,4.306,8.955c0.985,3.482,1.477,7.379,1.477,11.689c0,4.77-0.668,9.023-1.985,12.773
			c-1.326,3.736-3.082,6.879-5.278,9.406c-2.19,2.545-4.727,4.49-7.603,5.852c-2.876,1.365-5.864,2.037-8.964,2.037
			c-2.419,0-4.839-0.529-7.263-1.59c-2.415-1.045-4.766-2.564-7.03-4.533L240.06,421.103z M240.06,402.491
			c2.05,1.742,4.013,2.953,5.907,3.629c1.886,0.68,3.668,1.016,5.33,1.016c3.707,0,6.811-1.602,9.308-4.818
			c2.488-3.211,3.746-7.99,3.746-14.357c0-5.596-0.956-9.941-2.842-13.049c-1.895-3.1-4.951-4.654-9.196-4.654
			c-3.926,0-8.012,2.088-12.253,6.242V402.491z"/>
		<path fill="#FFD166" d="M292.938,371.179h-7.939v-9.766l8.624-0.559l1.58-15.215h10.9v15.215h14.19v10.324h-14.19v26.541
			c0,6.514,2.613,9.76,7.832,9.76c0.977,0,1.976-0.107,3-0.344c1.029-0.215,1.951-0.521,2.79-0.9l2.265,9.645
			c-1.516,0.529-3.237,1.004-5.166,1.416c-1.925,0.418-3.987,0.621-6.179,0.621c-3.259,0-5.997-0.492-8.227-1.469
			c-2.235-0.986-4.052-2.367-5.451-4.143c-1.399-1.777-2.419-3.9-3.065-6.354c-0.646-2.459-0.964-5.201-0.964-8.232V371.179z"/>
		<path fill="#FFD166" d="M327.212,388.757c0-4.607,0.719-8.736,2.148-12.365c1.438-3.625,3.384-6.693,5.846-9.188
			c2.454-2.506,5.278-4.404,8.456-5.734c3.177-1.316,6.501-1.984,9.988-1.984c3.475,0,6.828,0.668,10.035,1.984
			c3.221,1.33,6.032,3.229,8.451,5.734c2.42,2.494,4.37,5.563,5.852,9.188c1.477,3.629,2.213,7.758,2.213,12.365
			c0,4.611-0.736,8.748-2.213,12.373c-1.481,3.629-3.432,6.695-5.852,9.188c-2.419,2.498-5.23,4.387-8.451,5.68
			c-3.207,1.287-6.561,1.92-10.035,1.92c-3.487,0-6.812-0.633-9.988-1.92c-3.178-1.293-6.002-3.182-8.456-5.68
			c-2.462-2.492-4.408-5.559-5.846-9.188C327.931,397.505,327.212,393.368,327.212,388.757z M340.597,388.757
			c0,5.602,1.149,10.082,3.461,13.449c2.309,3.363,5.503,5.047,9.593,5.047c4.081,0,7.302-1.684,9.64-5.047
			c2.346-3.367,3.525-7.848,3.525-13.449c0-5.67-1.18-10.186-3.525-13.557c-2.338-3.363-5.559-5.051-9.64-5.051
			c-4.09,0-7.284,1.688-9.593,5.051C341.746,378.571,340.597,383.087,340.597,388.757z"/>
		<path fill="#FFD166" d="M396.655,398.065c2.656,2.492,5.67,4.52,9.071,6.066c3.419,1.549,6.85,2.324,10.324,2.324
			c4.176,0,7.362-0.865,9.592-2.605c2.23-1.738,3.346-4.043,3.346-6.922c0-1.512-0.275-2.799-0.84-3.857
			c-0.577-1.055-1.373-1.99-2.385-2.777c-1.029-0.801-2.261-1.537-3.694-2.213c-1.438-0.686-2.983-1.365-4.641-2.041l-10.109-4.434
			c-1.816-0.75-3.633-1.697-5.445-2.834c-1.813-1.133-3.423-2.492-4.818-4.08c-1.403-1.59-2.54-3.445-3.414-5.559
			c-0.86-2.123-1.305-4.547-1.305-7.264c0-2.949,0.638-5.691,1.878-8.227c1.248-2.537,2.962-4.75,5.166-6.648
			c2.187-1.881,4.8-3.357,7.836-4.422c3.014-1.049,6.346-1.584,9.971-1.584c4.392,0,8.593,0.844,12.597,2.559
			c4.013,1.695,7.457,3.986,10.324,6.857l-6.802,8.4c-2.347-1.973-4.817-3.527-7.431-4.65c-2.618-1.137-5.507-1.713-8.688-1.713
			c-3.557,0-6.363,0.783-8.447,2.332c-2.083,1.551-3.117,3.691-3.117,6.402c0,1.447,0.311,2.674,0.956,3.699
			c0.646,1.016,1.516,1.932,2.613,2.725c1.098,0.787,2.368,1.512,3.793,2.148c1.446,0.646,2.919,1.27,4.443,1.877l9.979,4.207
			c2.195,0.898,4.215,1.959,6.062,3.172c1.855,1.205,3.444,2.602,4.774,4.189c1.326,1.588,2.338,3.432,3.053,5.506
			c0.724,2.084,1.094,4.486,1.094,7.217c0,3.014-0.616,5.859-1.83,8.498c-1.21,2.652-2.962,4.98-5.27,6.982
			c-2.304,2.008-5.106,3.596-8.391,4.768c-3.307,1.17-7.026,1.752-11.186,1.752c-4.985,0-9.799-0.939-14.405-2.834
			c-4.615-1.885-8.705-4.572-12.253-8.051L396.655,398.065z"/>
		<path fill="#FFD166" d="M451.01,388.757c0-4.607,0.758-8.736,2.269-12.365c1.503-3.625,3.557-6.693,6.131-9.188
			c2.57-2.506,5.528-4.404,8.907-5.734c3.358-1.316,6.897-1.984,10.604-1.984c3.638,0,6.789,0.629,9.476,1.877
			c2.678,1.24,4.973,2.777,6.862,4.594l-6.246,8.287c-1.508-1.295-3.01-2.295-4.534-3.018c-1.515-0.715-3.134-1.076-4.873-1.076
			c-4.542,0-8.219,1.688-11.013,5.051c-2.799,3.371-4.193,7.887-4.193,13.557c0,5.602,1.373,10.082,4.133,13.449
			c2.764,3.363,6.328,5.047,10.729,5.047c2.265,0,4.37-0.475,6.299-1.412c1.92-0.953,3.643-2.063,5.166-3.35l5.438,8.273
			c-2.644,2.352-5.563,4.133-8.739,5.344c-3.169,1.209-6.347,1.809-9.523,1.809c-3.784,0-7.323-0.633-10.617-1.92
			c-3.284-1.293-6.147-3.182-8.567-5.68c-2.42-2.492-4.318-5.559-5.666-9.188C451.69,397.505,451.01,393.368,451.01,388.757z"/>
		<path fill="#FFD166" d="M503.534,401.583c0-5.977,2.621-10.592,7.835-13.842c5.218-3.256,13.545-5.523,24.967-6.807
			c0-1.438-0.186-2.824-0.568-4.146c-0.375-1.322-0.974-2.492-1.761-3.518c-0.801-1.016-1.817-1.809-3.053-2.381
			c-1.266-0.564-2.828-0.852-4.719-0.852c-2.811,0-5.506,0.529-8.119,1.588c-2.601,1.059-5.115,2.352-7.535,3.857l-4.766-8.73
			c3.092-1.969,6.544-3.678,10.371-5.111c3.828-1.438,7.97-2.156,12.438-2.156c7.018,0,12.253,2.059,15.646,6.182
			c3.41,4.121,5.114,10.084,5.114,17.871v33.021h-10.673l-1.012-6.131h-0.344c-2.502,2.123-5.167,3.893-8,5.336
			c-2.846,1.441-5.932,2.152-9.252,2.152c-4.925,0-8.907-1.486-11.96-4.479C505.075,410.456,503.534,406.503,503.534,401.583z
			 M516.256,400.558c0,2.502,0.731,4.305,2.209,5.445c1.472,1.133,3.37,1.705,5.717,1.705c2.278,0,4.357-0.529,6.247-1.588
			c1.895-1.059,3.866-2.57,5.907-4.537v-12.49c-3.793,0.461-6.966,1.072-9.536,1.82c-2.574,0.758-4.633,1.611-6.178,2.549
			c-1.563,0.957-2.67,2.037-3.346,3.242C516.587,397.913,516.256,399.202,516.256,400.558z"/>
		<path fill="#FFD166" d="M565.263,360.854h10.771l0.918,7.594h0.447c2.347-2.492,4.899-4.615,7.663-6.35
			c2.751-1.748,5.882-2.613,9.355-2.613c4.095,0,7.362,0.865,9.825,2.613c2.453,1.734,4.326,4.189,5.613,7.365
			c2.648-2.871,5.399-5.256,8.288-7.146c2.867-1.885,6.088-2.832,9.64-2.832c5.898,0,10.255,1.906,13.053,5.734
			c2.803,3.814,4.189,9.273,4.189,16.387v34.953H631.87v-33.24c0-4.619-0.711-7.865-2.105-9.764
			c-1.391-1.891-3.535-2.838-6.415-2.838c-3.466,0-7.362,2.313-11.676,6.922v38.92H598.62v-33.24c0-4.619-0.697-7.865-2.097-9.764
			c-1.396-1.891-3.587-2.838-6.522-2.838c-3.483,0-7.384,2.313-11.685,6.922v38.92h-13.054V360.854z"/>
		<path fill="#FFD166" d="M661.946,342.354h19.748c11.345,0,20.205,3.061,26.603,9.191c6.389,6.131,9.583,15.314,9.583,27.572
			c0,6.129-0.817,11.533-2.44,16.221c-1.628,4.689-3.974,8.607-7.035,11.746s-6.798,5.502-11.181,7.094
			c-4.374,1.586-9.343,2.381-14.866,2.381h-20.411V342.354z M680.773,405.892c7.56,0,13.381-2.166,17.475-6.527
			c4.091-4.348,6.131-11.098,6.131-20.246c0-9.08-2.063-15.703-6.183-19.852c-4.133-4.168-9.932-6.248-17.423-6.248h-5.675v52.873
			H680.773z"/>
		<path fill="#FFD166" d="M732.635,342.354h23.709c3.775,0,7.302,0.318,10.561,0.965c3.246,0.645,6.049,1.656,8.387,3.061
			c2.347,1.404,4.185,3.268,5.507,5.613c1.321,2.348,1.988,5.219,1.988,8.629c0,3.551-1.033,6.85-3.069,9.867
			c-2.04,3.031-5.257,5.105-9.636,6.242v0.449c5.36,0.908,9.485,2.824,12.365,5.738c2.867,2.91,4.306,6.867,4.306,11.857
			c0,3.705-0.724,6.918-2.153,9.639c-1.438,2.721-3.427,4.998-5.958,6.811c-2.536,1.816-5.545,3.164-9.024,4.035
			c-3.474,0.865-7.267,1.299-11.344,1.299h-25.638V342.354z M755.095,373.103c5.214,0,8.977-0.947,11.289-2.846
			c2.303-1.881,3.457-4.568,3.457-8.051c0-3.4-1.188-5.863-3.574-7.375c-2.38-1.512-5.992-2.26-10.822-2.26h-9.648v20.531H755.095z
			 M756.907,406.349c5.442,0,9.631-1.025,12.537-3.063c2.91-2.049,4.365-5.184,4.365-9.428c0-3.844-1.429-6.711-4.301-8.559
			c-2.871-1.855-7.078-2.777-12.602-2.777h-11.111v23.826H756.907z"/>
	</g>
</g>
</svg>
