<?xml version="1.0" encoding="UTF-8"?>
<svg width="10px" height="16px" viewBox="0 0 10 16" version="1.1" xmlns="http://www.w3.org/2000/svg" xmlns:xlink="http://www.w3.org/1999/xlink">
    <!-- Generator: Sketch 51.3 (57544) - http://www.bohemiancoding.com/sketch -->
    <title>Eth logo</title>
    <desc>Created with Sketch.</desc>
    <defs>
        <linearGradient x1="52.2205973%" y1="15.0913021%" x2="145.976682%" y2="223.204713%" id="linearGradient-1">
            <stop stop-color="#FAD961" offset="0%"></stop>
            <stop stop-color="#F7BD5B" offset="35.5655676%"></stop>
            <stop stop-color="#F28B50" offset="100%"></stop>
        </linearGradient>
    </defs>
    <g id="Symbols" stroke="none" stroke-width="1" fill="none" fill-rule="evenodd">
        <g id="Footer/Mobile" transform="translate(-236.000000, -346.000000)" fill="url(#linearGradient-1)">
            <g id="Group-3" transform="translate(52.000000, 262.000000)">
                <g id="Group-19" transform="translate(171.000000, 0.000000)">
                    <g id="Elements/Network-Selector-Copy" transform="translate(0.000000, 75.000000)">
                        <g id="Eth-logo" transform="translate(13.000000, 9.000000)">
                            <g id="bitcoin" transform="translate(0.761160, 0.758285)">
                                <path d="M3.50234675,3.8472328 L3.50234675,6.58426024 C3.52295757,6.58679415 3.53944622,6.59094976 3.55585075,6.59054433 C3.92533121,6.58162497 4.29531643,6.58517244 4.66395563,6.55881979 C4.97614643,6.53652139 5.28202779,6.45715935 5.56839197,6.29427966 C6.15920738,5.95838465 6.35622998,5.12746512 5.98725427,4.51608349 C5.81345039,4.22813004 5.56082065,4.08389992 5.2859817,3.98994257 C4.70273762,3.79067594 4.10561277,3.83679309 3.50234675,3.8472328 M3.50167374,7.98835004 L3.50167374,11.0031953 C3.52186393,11.0060333 3.53843671,11.010797 3.55484124,11.0102902 C4.05042626,10.9936678 4.54668428,10.9911339 5.04117566,10.9542402 C5.37010749,10.9296106 5.69272989,10.8365654 5.9961716,10.6712532 C6.29591179,10.5078667 6.5481209,10.2792067 6.64780996,9.88168705 C6.77803668,9.36223565 6.67052392,8.76230729 6.18806253,8.4124251 C5.83296757,8.15487856 5.43782875,8.04713674 5.03293133,8.01875695 C4.55551749,7.98530935 4.07616875,7.99179616 3.59757714,7.98166052 C3.56653473,7.98105238 3.53549231,7.98591749 3.50167374,7.98835004 M0.0219787827,12.6404048 C0.0219787827,12.6127345 0.0219787827,12.5850642 0.0219787827,12.5573939 C0.0273628331,12.5459406 0.0359436635,12.5350955 0.0376261792,12.5229327 C0.0791843184,12.223526 0.1199012,11.9239166 0.161206961,11.6244085 C0.189641478,11.4181483 0.218833126,11.2120908 0.248193026,11.0023844 C0.291770184,11.0023844 0.325925254,11.0023844 0.359996198,11.0023844 C0.600932454,11.0020804 0.841952836,11.0078577 1.08263672,10.9998505 C1.35873755,10.9907285 1.50604181,10.7989622 1.50604181,10.4644862 C1.50612593,8.45357578 1.50595768,6.44256403 1.5057053,4.43165363 C1.5057053,4.1185638 1.34561393,3.86446338 1.0939937,3.78540541 C1.02526293,3.76391786 0.95291475,3.75013339 0.881996711,3.74881576 C0.595380152,3.74324116 0.308679468,3.74395066 0.0219787827,3.74232895 L0.0219787827,2.26972224 L2.32576348,2.26972224 C2.32576348,2.21275996 2.32567936,2.17181199 2.32576348,2.13086401 C2.32677299,1.42359926 2.3277825,0.716233146 2.32879201,0.0088670342 L3.46507903,0.0088670342 C3.46600441,0.703158174 3.46692979,1.39744931 3.46785518,2.09174046 C3.4679393,2.13218165 3.46785518,2.1727242 3.46785518,2.20951656 L4.37742319,2.20951656 L4.37742319,0.0088670342 L5.53087187,0.0088670342 C5.52952586,0.0295437339 5.52708621,0.0501190771 5.52708621,0.0706944204 C5.52700208,0.77897274 5.52708621,1.4871497 5.52750684,2.19542802 C5.52750684,2.21863863 5.53146075,2.2419506 5.53381627,2.2682019 C5.59707887,2.27661448 5.65663992,2.28411485 5.71611686,2.29242607 C6.15525347,2.35354396 6.58875365,2.44517012 7.00265253,2.64088927 C7.44027488,2.84775763 7.81446638,3.15213081 8.05742166,3.65313535 C8.2308049,4.01072062 8.29793728,4.40357792 8.3103879,4.81214545 C8.33781291,5.71239273 8.06406759,6.4198602 7.39560408,6.8724164 C7.37743291,6.88468052 7.36086013,6.90059347 7.33722079,6.91995254 C7.45356675,6.96363713 7.5604065,6.99961864 7.66497486,7.04370867 C8.30508798,7.31372204 8.75398318,7.80438823 8.9112984,8.62618568 C8.93687264,8.75997609 8.95327717,8.89630041 8.97397211,9.03140845 L8.97397211,9.67441327 C8.9566422,9.81377828 8.94091068,9.95344736 8.92181413,10.0924069 C8.78982076,11.0562047 8.36464903,11.7529284 7.62072469,12.156124 C7.09687341,12.4399218 6.53928769,12.5523261 5.97303701,12.618005 C5.82598513,12.6350329 5.67876501,12.6485133 5.52750684,12.6640208 C5.52750684,12.8201096 5.52733859,12.9647451 5.52759097,13.109482 C5.52860047,13.7205596 5.52977824,14.3316372 5.53087187,14.9427147 L4.37742319,14.9427147 L4.37742319,12.6929074 L3.46785518,12.6929074 C3.46785518,12.7360852 3.4679393,12.7769318 3.46785518,12.817677 C3.46692979,13.5260567 3.46600441,14.234335 3.46507903,14.9427147 L2.32879201,14.9427147 L2.32879201,12.6577367 C2.28386884,12.6577367 2.25282642,12.657838 2.22186813,12.6577367 C1.52564311,12.6544933 0.829333968,12.6512499 0.133024823,12.6474997 C0.0960094759,12.6473983 0.0589941293,12.6428373 0.0219787827,12.6404048" id="Fill-1"></path>
                            </g>
                        </g>
                    </g>
                </g>
            </g>
        </g>
    </g>
</svg>