<svg height='300px' width='300px'  fill="#000000" xmlns="http://www.w3.org/2000/svg" xmlns:xlink="http://www.w3.org/1999/xlink" version="1.1" x="0px" y="0px" viewBox="0 0 100 91.46" enable-background="new 0 0 100 91.46" xml:space="preserve"><path fill="none" d="M79.039,53.89c-0.276-0.114-0.547-0.229-0.854-0.337c-2.529-0.922-3.571-1.577-3.571-2.529  c0-0.833,0.625-1.695,2.56-1.695c2.142,0,3.54,0.684,4.284,1.041l0.893-3.362c-1.012-0.477-2.351-0.922-4.344-0.982v-2.618H75.09  v2.827c-3.184,0.595-5.028,2.648-5.028,5.296c0,2.887,2.172,4.374,5.355,5.445c0.142,0.048,0.263,0.096,0.395,0.143  c1.915,0.694,2.789,1.388,2.789,2.446c0,1.16-1.19,1.845-2.886,1.845c-1.289,0-2.493-0.28-3.526-0.667  c-0.518-0.194-0.996-0.414-1.413-0.643l-0.709,2.765l-0.184,0.717c1.131,0.625,3.064,1.19,5.058,1.25v2.856h2.916v-3.065  c3.452-0.595,5.297-2.826,5.297-5.475C83.153,56.673,81.965,55.098,79.039,53.89z"></path><path d="M55.163,55.547c0-11.794,9.561-21.354,21.354-21.354c4.985,0,9.561,1.722,13.194,4.585  c2.409-8.236,0.267-17.069-6.021-23.322c-9.328-9.28-24.412-9.24-33.692,0.089c-9.278-9.329-24.363-9.37-33.691-0.089  c-9.329,9.278-9.546,24.233,0.712,34.495c11.452,11.45,29.772,29.779,32.979,32.988c1.476-1.476,6.146-6.149,11.874-11.878  C57.75,67.167,55.163,61.666,55.163,55.547z"></path><path d="M88.423,42.21c-3.165-2.827-7.327-4.561-11.905-4.561c-9.884,0-17.897,8.014-17.897,17.897  c0,5.163,2.199,9.802,5.697,13.068c3.198,2.986,7.479,4.828,12.2,4.828c9.885,0,17.897-8.012,17.897-17.896  C94.415,50.241,92.092,45.488,88.423,42.21z M77.856,64.622v3.065H74.94v-2.856c-1.993-0.06-3.927-0.625-5.058-1.25l0.184-0.717  l0.709-2.765c0.417,0.229,0.896,0.448,1.413,0.643c1.033,0.387,2.237,0.667,3.526,0.667c1.695,0,2.886-0.685,2.886-1.845  c0-1.059-0.874-1.752-2.789-2.446c-0.132-0.047-0.253-0.095-0.395-0.143c-3.184-1.071-5.355-2.559-5.355-5.445  c0-2.647,1.845-4.701,5.028-5.296v-2.827h2.916v2.618c1.993,0.06,3.332,0.505,4.344,0.982l-0.893,3.362  c-0.744-0.357-2.143-1.041-4.284-1.041c-1.935,0-2.56,0.862-2.56,1.695c0,0.952,1.042,1.607,3.571,2.529  c0.308,0.107,0.578,0.223,0.854,0.337c2.926,1.208,4.114,2.783,4.114,5.257C83.153,61.795,81.309,64.027,77.856,64.622z"></path></svg>