<?xml version="1.0" encoding="UTF-8"?>
<svg width="10px" height="16px" viewBox="0 0 10 16" version="1.1" xmlns="http://www.w3.org/2000/svg" xmlns:xlink="http://www.w3.org/1999/xlink">
    <!-- Generator: Sketch 51.3 (57544) - http://www.bohemiancoding.com/sketch -->
    <title>Shape</title>
    <desc>Created with Sketch.</desc>
    <defs></defs>
    <g id="Symbols" stroke="none" stroke-width="1" fill="none" fill-rule="evenodd">
        <g id="Footer/Mobile" transform="translate(-235.000000, -298.000000)" fill="#737BB1" fill-rule="nonzero">
            <g id="Group-3" transform="translate(52.000000, 262.000000)">
                <g id="Group-19" transform="translate(171.000000, 0.000000)">
                    <g id="Elements/Network-Selector" transform="translate(0.000000, 28.000000)">
                        <g id="Group-13">
                            <path d="M12.8601905,17.7211429 C12.7809524,17.607619 12.8129524,17.5702857 12.9264762,17.6335238 L17.112381,19.9832381 C17.2462126,20.047778 17.4021683,20.047778 17.536,19.9832381 L21.7942857,17.6380952 C21.912381,17.5733333 21.9413333,17.6144762 21.8628571,17.7257143 L17.4849524,23.9161905 C17.4049524,24.0289524 17.2746667,24.0274286 17.1969524,23.9161905 L12.8601905,17.7211429 Z M12.8899048,16.1729524 C12.8321755,16.1462876 12.7886743,16.0961188 12.7704553,16.0351947 C12.7522364,15.9742705 12.7610537,15.9084563 12.7946667,15.8544762 L17.1664762,8.84342857 C17.2373333,8.72914286 17.3539048,8.73066667 17.424,8.84342857 L21.8232381,15.8445714 C21.8948571,15.9580952 21.856,16.0990476 21.7287619,16.1630476 L17.5329524,18.2788571 C17.3904994,18.3417177 17.2281672,18.3417177 17.0857143,18.2788571 L12.8899048,16.1729524 Z" id="Shape"></path>
                        </g>
                    </g>
                </g>
            </g>
        </g>
    </g>
</svg>