<?xml version="1.0" encoding="UTF-8"?>
<svg width="25px" height="26px" viewBox="0 0 25 26" version="1.1" xmlns="http://www.w3.org/2000/svg" xmlns:xlink="http://www.w3.org/1999/xlink">
    <!-- Generator: Sketch 51.3 (57544) - http://www.bohemiancoding.com/sketch -->
    <title>icons/phishing</title>
    <desc>Created with Sketch.</desc>
    <defs></defs>
    <g id="icons/phishing" stroke="none" stroke-width="1" fill="none" fill-rule="evenodd">
        <path d="M22.1462048,17.3205013 L15.6776227,17.3205013 C15.2297107,17.3205013 14.8671008,16.9662787 14.8671008,16.5293942 C14.8671008,16.091316 15.2303222,15.7373918 15.6776227,15.7373918 L22.1462048,15.7373918 C22.5944225,15.7373918 22.9570324,16.0919129 22.9570324,16.5293942 C22.9570324,16.9659803 22.5944225,17.3205013 22.1462048,17.3205013 M22.1462048,21.0346165 L15.6776227,21.0346165 C15.2297107,21.0346165 14.8671008,20.6803939 14.8671008,20.2438078 C14.8671008,19.8057296 15.2303222,19.4518054 15.6776227,19.4518054 L22.1462048,19.4518054 C22.5944225,19.4518054 22.9570324,19.8060281 22.9570324,20.2438078 C22.9570324,20.6800955 22.5944225,21.0346165 22.1462048,21.0346165 M13.0519109,22.5371531 L13.0519109,23.12265 C13.0519109,23.5849 12.6682048,23.9585198 12.1955278,23.9585198 L7.74331374,23.9585198 C7.27063671,23.9585198 6.88723632,23.5849 6.88723632,23.12265 L6.88723632,22.5371531 C6.88723632,22.5096986 6.88845929,22.4816473 6.89151671,22.4541928 L6.88723632,22.4541928 C6.88723632,20.7934945 8.26704967,19.4455386 9.96942076,19.4455386 C11.6717919,19.4455386 13.0519109,20.7934945 13.0519109,22.4541928 L13.0473248,22.4541928 C13.0503822,22.4816473 13.0519109,22.5096986 13.0519109,22.5371531 M7.80446213,10.9674724 C7.93654264,10.9262907 8.07748967,10.9973142 8.11968206,11.1259326 C8.3153569,11.7215756 8.36763877,12.1957625 8.32544638,12.6353327 C8.29823535,12.9188302 8.23250084,13.1877052 8.13680361,13.4640406 C8.10408922,13.5571471 8.0689289,13.6511489 8.03009968,13.7463444 C7.99127045,13.8424351 7.89679619,13.9012235 7.79712432,13.9012235 C7.76655013,13.9012235 7.73536445,13.8955536 7.705096,13.8836168 C7.57637864,13.8340794 7.51339581,13.6914354 7.56445471,13.5663981 C7.59839206,13.4831394 7.629272,13.4016711 7.65740026,13.3219934 C7.88395503,12.6860639 7.92828761,12.1459266 7.6424189,11.276037 C7.60022652,11.1468218 7.67238161,11.009251 7.80446213,10.9674724 M11.7243795,16.6696509 C11.7243795,17.614145 10.9373997,18.3825724 9.96942076,18.3825724 C9.00174754,18.3825724 8.21415632,17.614145 8.21415632,16.6696509 C8.21415632,15.7248583 9.00174754,14.9567293 9.96942076,14.9567293 C10.9377055,14.9567293 11.7243795,15.7248583 11.7243795,16.6696509 M23.0973679,12.629066 L8.85101677,12.629066 C8.8913747,11.9988063 8.82686316,11.3151298 8.64464096,10.5747538 L8.64464096,10.574157 C8.34226219,8.71888988 6.6493691,6.32408236 6.57751974,6.22321695 C6.49863833,6.11280215 6.36380613,6.05162638 6.22683375,6.06803939 C6.08955562,6.08355715 5.97215071,6.17069531 5.92017459,6.29573262 L4.08266556,10.7388839 C4.02640904,10.8749627 4.05851195,11.0301403 4.16429866,11.1345867 C4.23614801,11.2053118 4.33276246,11.2429126 4.43151711,11.2429126 C4.4773784,11.2429126 4.52446266,11.2345568 4.56879524,11.217547 L6.53226994,10.4634437 C6.80529749,11.3031931 6.90680381,12.025664 6.84351523,12.629066 L6.35463387,12.629066 C5.30379885,12.629066 4.45200182,13.4604596 4.45200182,14.4861235 L4.45200182,14.7317219 C3.94905634,14.7394808 3.55036885,14.5998209 3.21588718,14.29812 C2.13325499,13.3213966 2.00881802,11.4067443 2.00851228,10.1229484 C2.00851228,10.109818 2.00912376,10.096986 2.00912376,10.0838556 L2.00912376,0.978513876 C2.00912376,0.437779767 1.5602946,0 1.0069017,0 C0.453203058,0 0.00437389806,0.438078186 0.00437389806,0.978513876 L0.00437389806,10.065652 C-0.0130533922,10.5502835 -0.0659467468,13.9952253 1.8504437,15.7302298 C2.54906402,16.3628768 3.43235247,16.6893465 4.42265059,16.6893465 C4.43212859,16.6893465 4.44221808,16.6878544 4.45200182,16.6872575 L4.45200182,24.142644 C4.45200182,25.1689048 5.30379885,26 6.35463387,26 L23.0973679,26 C24.148203,26 25,25.1689048 25,24.142644 L25,14.4858251 C25,13.4604596 24.148203,12.629066 23.0973679,12.629066" id="phishing" fill="#163150"></path>
    </g>
</svg>