<?xml version="1.0" encoding="UTF-8"?>
<svg width="25px" height="26px" viewBox="0 0 25 26" version="1.1" xmlns="http://www.w3.org/2000/svg" xmlns:xlink="http://www.w3.org/1999/xlink">
    <!-- Generator: Sketch 51.3 (57544) - http://www.bohemiancoding.com/sketch -->
    <title>icons/scamming</title>
    <desc>Created with Sketch.</desc>
    <defs></defs>
    <g id="icons/scamming" stroke="none" stroke-width="1" fill="none" fill-rule="evenodd">
        <path d="M2,11 C2,9.3 3.35909091,8 5.13636364,8 L21.8636364,8 C23.6409091,8 25,9.3 25,11 L25,21 C25,22.7 23.6409091,24 21.8636364,24 L5.13636364,24 C3.35909091,24 2,22.7 2,21 L2,11 Z M22.9090909,16 L4.09090909,16 L4.09090909,21 C4.09090909,21.6 4.50909091,22 5.13636364,22 L21.8636364,22 C22.3863636,22 22.9090909,21.5 22.9090909,21 L22.9090909,16 Z M22.9090909,12 L4.09090909,12 L4.09090909,11 C4.09090909,10.5 4.50909091,10 5.13636364,10 L21.8636364,10 C22.4909091,10 22.9090909,10.4 22.9090909,11 L22.9090909,12 Z M6.18181818,20 L6.18181818,18 L14.5454545,18 L14.5454545,20 L6.18181818,20 Z" id="cards" fill="#163150"></path>
    </g>
</svg>