<?xml version="1.0" encoding="iso-8859-1"?>
<!-- Generator: Adobe Illustrator 19.0.0, SVG Export Plug-In . SVG Version: 6.00 Build 0)  -->
<svg version="1.1" id="Capa_1" xmlns="http://www.w3.org/2000/svg" xmlns:xlink="http://www.w3.org/1999/xlink" x="0px" y="0px"
	 viewBox="0 0 469.333 469.333" style="enable-background:new 0 0 469.333 469.333;" xml:space="preserve">
<g>
	<g>
		<path d="M469.333,162.493c0-33.469-48.077-52.865-96.59-55.526c-4.193-31.451-31.822-85.634-59.32-85.634
			c-9.894,0-21.455,2.302-33.702,4.728c-13.997,2.781-29.849,5.936-45.054,5.936s-31.057-3.156-45.055-5.936
			c-12.248-2.427-23.808-4.728-33.702-4.728c-27.498,0-55.127,54.183-59.32,85.634C48.077,109.629,0,129.025,0,162.493
			c0,23.382,26.599,52.435,82.895,71.918c-0.004,0.128-0.01,0.253-0.014,0.38c-16.789,11.571-18.893,31.15-18.893,45.46
			c0,10.976,5.825,29.704,15.335,45.009l-23.708-5.08c-4.166-0.896-8.478,0.771-10.956,4.239c-2.479,3.468-2.666,8.082-0.479,11.737
			l63.989,106.646c1.937,3.229,5.416,5.197,9.186,5.197h234.625c3.77,0,7.249-1.968,9.186-5.197l63.989-106.646
			c2.187-3.656,2-8.269-0.479-11.737c-2.479-3.468-6.79-5.134-10.956-4.239l-23.708,5.08c9.51-15.306,15.335-34.034,15.335-45.009
			c0-14.31-2.104-33.889-18.913-45.46c-0.003-0.125-0.01-0.249-0.013-0.374C442.729,214.935,469.333,185.878,469.333,162.493z
			 M357.021,328.448c-4.059,0-7.669,2.346-9.486,5.939l-83.119,17.811c-3.396,0.729-6.229,3.052-7.583,6.25l-22.167,51.698
			L212.5,358.448c-1.354-3.198-4.188-5.521-7.583-6.25l-83.118-17.811c-1.816-3.592-5.427-5.939-9.486-5.939
			c-10.292,0-26.938-32.438-26.938-48.188c0-20.635,6.125-26.438,12.75-29.625c3.708-1.781,6.063-5.531,6.063-9.646
			c0,0,0.001-0.033,0.001-0.049c6.668,1.783,13.669,3.435,21.012,4.947c-4.835,5.607-7.867,12.813-7.867,20.78v10.667
			C117.333,300.865,136.479,320,160,320h10.667C200.083,320,224,296.073,224,266.667v-8.875c1.023-0.582,3.891-1.682,10.04-1.763
			c0.216,0,0.41,0.013,0.626,0.013s0.41-0.013,0.626-0.013c6.148,0.082,8.996,1.181,10.04,1.763v8.875
			c0,29.406,23.917,53.333,53.333,53.333h10.667C332.854,320,352,300.865,352,277.333v-10.667c0-7.967-3.033-15.173-7.867-20.78
			c7.335-1.51,14.328-3.161,20.991-4.941c0,0.014,0.001,0.03,0.001,0.044c0,4.115,2.354,7.865,6.063,9.656
			c6.625,3.188,12.771,8.979,12.771,29.615C383.958,296.01,367.313,328.448,357.021,328.448z"/>
	</g>
</g>
<g>
</g>
<g>
</g>
<g>
</g>
<g>
</g>
<g>
</g>
<g>
</g>
<g>
</g>
<g>
</g>
<g>
</g>
<g>
</g>
<g>
</g>
<g>
</g>
<g>
</g>
<g>
</g>
<g>
</g>
</svg>
