<?xml version="1.0" encoding="UTF-8"?>
<svg width="21px" height="21px" viewBox="0 0 21 21" version="1.1" xmlns="http://www.w3.org/2000/svg" xmlns:xlink="http://www.w3.org/1999/xlink">
    <!-- Generator: Sketch 51.3 (57544) - http://www.bohemiancoding.com/sketch -->
    <title>Fill 1</title>
    <desc>Created with Sketch.</desc>
    <defs></defs>
    <g id="Symbols" stroke="none" stroke-width="1" fill="none" fill-rule="evenodd">
        <g id="ico-search" fill="#FFD166">
            <path d="M8.53187406,13.7799043 C5.63185725,13.7799043 3.28149002,11.4340396 3.28149002,8.53041695 C3.28149002,5.63089542 5.62775539,3.2809296 8.53187406,3.2809296 C11.4318909,3.2809296 13.7822581,5.62679426 13.7822581,8.53041695 C13.7822581,11.4299385 11.4359927,13.7799043 8.53187406,13.7799043 M20.7144058,18.1558442 L16.6248488,14.0669856 C16.440265,13.8824334 16.1900514,13.7799043 15.9275322,13.7799043 L15.2589286,13.7799043 C16.3910427,12.3321941 17.0637481,10.5112782 17.0637481,8.53041695 C17.0637481,3.81818182 13.2449141,0 8.53187406,0 C3.81883401,0 0,3.81818182 0,8.53041695 C0,13.2426521 3.81883401,17.0608339 8.53187406,17.0608339 C10.5130737,17.0608339 12.3343006,16.3882433 13.7822581,15.2563226 L13.7822581,15.924812 C13.7822581,16.1872864 13.8848047,16.4374573 14.0693885,16.6220096 L18.1589454,20.7108681 C18.5445205,21.0963773 19.1680036,21.0963773 19.5494768,20.7108681 L20.7103039,19.5502392 C21.095879,19.16473 21.095879,18.5413534 20.7144058,18.1558442" id="Fill-1"></path>
        </g>
    </g>
</svg>