<?xml version="1.0" encoding="UTF-8"?>
<svg width="12px" height="12px" viewBox="0 0 12 12" version="1.1" xmlns="http://www.w3.org/2000/svg" xmlns:xlink="http://www.w3.org/1999/xlink">
    <!-- Generator: Sketch 51.3 (57544) - http://www.bohemiancoding.com/sketch -->
    <title>Combined Shape</title>
    <desc>Created with Sketch.</desc>
    <defs></defs>
    <g id="Symbols" stroke="none" stroke-width="1" fill="none" fill-rule="evenodd">
        <g id="table/status/inactive" transform="translate(-20.000000, -9.000000)" fill="#E3EDFF" fill-rule="nonzero">
            <g id="Status">
                <path d="M25.7426407,12.6213203 L28.9246212,9.43933983 C29.5104076,8.85355339 30.4601551,8.85355339 31.0459415,9.43933983 C31.631728,10.0251263 31.631728,10.9748737 31.0459415,11.5606602 L27.863961,14.7426407 L31.0459415,17.9246212 C31.631728,18.5104076 31.631728,19.4601551 31.0459415,20.0459415 C30.4601551,20.631728 29.5104076,20.631728 28.9246212,20.0459415 L25.7426407,16.863961 L22.5606602,20.0459415 C21.9748737,20.631728 21.0251263,20.631728 20.4393398,20.0459415 C19.8535534,19.4601551 19.8535534,18.5104076 20.4393398,17.9246212 L23.6213203,14.7426407 L20.4393398,11.5606602 C19.8535534,10.9748737 19.8535534,10.0251263 20.4393398,9.43933983 C21.0251263,8.85355339 21.9748737,8.85355339 22.5606602,9.43933983 L25.7426407,12.6213203 Z" id="Combined-Shape"></path>
            </g>
        </g>
    </g>
</svg>