<?xml version="1.0" encoding="utf-8"?>
<!-- Generator: Adobe Illustrator 15.1.0, SVG Export Plug-In . SVG Version: 6.00 Build 0)  -->
<!DOCTYPE svg PUBLIC "-//W3C//DTD SVG 1.1//EN" "http://www.w3.org/Graphics/SVG/1.1/DTD/svg11.dtd">
<svg version="1.1" id="Layer_2" xmlns="http://www.w3.org/2000/svg" xmlns:xlink="http://www.w3.org/1999/xlink" x="0px" y="0px"
	 width="609.555px" height="1000px" viewBox="0 0 609.555 1000" enable-background="new 0 0 609.555 1000" xml:space="preserve">
<g>
	<g>
		<path fill="#FFFFFF" d="M294.777,726.176L9.337,556.373c5.979,20.553,13.911,40.264,23.809,58.799l-0.04,0.023l0.341,0.572
			c4.45,8.303,9.294,16.359,14.473,24.186l246.858,344.721V726.176z"/>
		<path fill="#FFFFFF" d="M600.248,556.373L314.777,726.195v258.523l246.892-344.766c5.176-7.826,10.022-15.883,14.473-24.186
			l0.34-0.572l-0.039-0.023C586.337,596.637,594.274,576.926,600.248,556.373z"/>
	</g>
	<g>
		<path fill="#FFFFFF" d="M314.777,680.605L609.555,505.23L497.521,318.938L396.74,378.903l-81.963,128.025V680.605z
			 M468.234,423.15l34.045,60.231l-120.744,74.537L468.234,423.15z"/>
		<polygon fill="#FFFFFF" points="294.777,507.031 212.794,378.885 112.036,318.938 0,505.23 294.777,680.604 		"/>
	</g>
	<g>
		<polygon fill="#FFFFFF" points="314.777,15.281 314.777,380.003 476.391,283.859 		"/>
		<polygon fill="#FFFFFF" points="294.777,15.285 133.213,283.898 294.777,380.005 		"/>
	</g>
</g>
</svg>
