<?xml version="1.0" encoding="utf-8"?>
<!-- Generator: Adobe Illustrator 15.1.0, SVG Export Plug-In . SVG Version: 6.00 Build 0)  -->
<!DOCTYPE svg PUBLIC "-//W3C//DTD SVG 1.1//EN" "http://www.w3.org/Graphics/SVG/1.1/DTD/svg11.dtd">
<svg version="1.1" id="Layer_2" xmlns="http://www.w3.org/2000/svg" xmlns:xlink="http://www.w3.org/1999/xlink" x="0px" y="0px"
	 width="609.555px" height="1000px" viewBox="0 0 609.555 1000" enable-background="new 0 0 609.555 1000" xml:space="preserve">
<g>
	<g>
		<path d="M294.777,727.516L9.337,557.712c5.979,20.553,13.911,40.265,23.809,58.8l-0.04,0.023l0.341,0.572
			c4.45,8.303,9.294,16.359,14.473,24.185l246.858,344.721V727.516z"/>
		<path d="M600.248,557.712L314.777,727.535v258.523l246.892-344.767c5.176-7.825,10.022-15.882,14.473-24.185l0.34-0.572
			l-0.039-0.023C586.337,597.977,594.274,578.265,600.248,557.712z"/>
	</g>
	<g>
		<path d="M314.777,681.944L609.555,506.57L497.521,320.277L396.74,380.242l-81.963,128.025V681.944z M468.234,424.489
			l34.045,60.231l-120.744,74.537L468.234,424.489z"/>
		<polygon points="294.777,508.37 212.794,380.225 112.036,320.277 0,506.57 294.777,681.942 		"/>
	</g>
	<g>
		<polygon points="314.777,16.62 314.777,381.342 476.391,285.198 		"/>
		<polygon points="294.777,16.624 133.213,285.237 294.777,381.344 		"/>
	</g>
</g>
</svg>
