<?xml version="1.0" encoding="utf-8"?>
<!-- Generator: Adobe Illustrator 15.1.0, SVG Export Plug-In . SVG Version: 6.00 Build 0)  -->
<!DOCTYPE svg PUBLIC "-//W3C//DTD SVG 1.1//EN" "http://www.w3.org/Graphics/SVG/1.1/DTD/svg11.dtd">
<svg version="1.1" id="Layer_2" xmlns="http://www.w3.org/2000/svg" xmlns:xlink="http://www.w3.org/1999/xlink" x="0px" y="0px"
	 width="951.979px" height="321.032px" viewBox="0 0 951.979 321.032" enable-background="new 0 0 951.979 321.032"
	 xml:space="preserve">
<g>
	<path fill="#F4A351" d="M62.876,174.093c1.406,4.832,3.273,9.469,5.6,13.83l-0.008,0.004l0.08,0.137
		c1.045,1.951,2.186,3.848,3.404,5.688l60.424,84.381v-62.697L62.876,174.093z"/>
	<path fill="#CC6C15" d="M132.376,215.435v62.697l60.424-84.381c1.217-1.84,2.359-3.736,3.404-5.688l0.082-0.137l-0.01-0.004
		c2.324-4.361,4.193-8.998,5.598-13.83L132.376,215.435z"/>
	<polygon fill="#CC6C15" points="132.372,42.901 132.372,134.003 172.739,109.989 	"/>
	<path fill="#CC6C15" d="M177.71,118.241l-23.703,14.102l-21.646,33.805l0.014,38.566l71.689-42.652L177.71,118.241z
		 M150.429,174.456l20.395-31.703l8.008,14.168L150.429,174.456z"/>
	<polygon fill="#F4A351" points="132.374,204.714 60.681,162.062 87.032,118.241 110.737,132.341 132.36,166.147 	"/>
	<polygon fill="#F4A351" points="132.372,134.003 132.372,42.901 92.015,109.997 	"/>
	<g>
		<path fill="#F4A351" d="M281.419,166.815h-30.684v28.457h34.195v8.549h-44.385V124.89h42.629v8.549h-32.439v24.945h30.684V166.815
			z"/>
		<path fill="#F4A351" d="M309.874,130.86v16.281h14.758v7.844h-14.758v30.566c0,7.027,1.988,11.008,7.727,11.008
			c2.697,0,4.691-0.35,5.975-0.701l0.471,7.729c-1.99,0.816-5.156,1.406-9.137,1.406c-4.803,0-8.668-1.523-11.127-4.332
			c-2.926-3.045-3.982-8.082-3.982-14.756v-30.92h-8.783v-7.844h8.783v-13.586L309.874,130.86z"/>
		<path fill="#F4A351" d="M336.222,120.675h10.307v35.367h0.236c1.637-2.928,4.213-5.506,7.377-7.264
			c3.045-1.756,6.676-2.928,10.539-2.928c7.613,0,19.791,4.686,19.791,24.242v33.729h-10.307v-32.559
			c0-9.131-3.395-16.861-13.115-16.861c-6.674,0-11.945,4.686-13.82,10.307c-0.586,1.404-0.701,2.928-0.701,4.918v34.195h-10.307
			V120.675z"/>
		<path fill="#F4A351" d="M406.956,177.354c0.232,13.934,9.133,19.674,19.439,19.674c7.377,0,11.824-1.287,15.691-2.928l1.758,7.377
			c-3.631,1.641-9.84,3.516-18.854,3.516c-17.451,0-27.873-11.477-27.873-28.574s10.07-30.568,26.584-30.568
			c18.504,0,23.418,16.281,23.418,26.703c0,2.107-0.23,3.746-0.35,4.801H406.956z M437.169,169.976
			c0.117-6.557-2.695-16.744-14.285-16.744c-10.424,0-14.99,9.602-15.809,16.744H437.169z"/>
		<path fill="#F4A351" d="M459.884,164.825c0-6.676-0.117-12.416-0.471-17.684h9.02l0.352,11.123h0.467
			c2.578-7.611,8.785-12.414,15.695-12.414c1.17,0,1.992,0.119,2.928,0.35v9.723c-1.055-0.232-2.111-0.352-3.514-0.352
			c-7.262,0-12.416,5.504-13.82,13.236c-0.234,1.402-0.469,3.041-0.469,4.799v30.215h-10.188V164.825z"/>
		<path fill="#CC6C15" d="M497.126,191.407c4.564,2.811,11.24,5.152,18.266,5.152c10.428,0,16.514-5.504,16.514-13.465
			c0-7.379-4.217-11.598-14.871-15.695c-12.883-4.566-20.848-11.24-20.848-22.367c0-12.295,10.188-21.432,25.527-21.432
			c8.082,0,13.938,1.875,17.453,3.865l-2.811,8.313c-2.582-1.404-7.848-3.744-14.99-3.744c-10.775,0-14.873,6.438-14.873,11.826
			c0,7.379,4.801,11.008,15.691,15.227c13.35,5.148,20.143,11.594,20.143,23.184c0,12.182-9.02,22.723-27.641,22.723
			c-7.611,0-15.924-2.227-20.139-5.037L497.126,191.407z"/>
		<path fill="#CC6C15" d="M597.015,201.714c-2.691,1.404-8.668,3.279-16.277,3.279c-17.102,0-28.225-11.594-28.225-28.928
			c0-17.447,11.945-30.096,30.449-30.096c6.088,0,11.477,1.52,14.289,2.926l-2.348,7.963c-2.455-1.402-6.32-2.691-11.941-2.691
			c-12.998,0-20.027,9.602-20.027,21.432c0,13.117,8.434,21.197,19.674,21.197c5.855,0,9.721-1.523,12.65-2.813L597.015,201.714z"/>
		<path fill="#CC6C15" d="M640.46,203.821l-0.816-7.143h-0.355c-3.16,4.449-9.25,8.43-17.332,8.43
			c-11.477,0-17.33-8.08-17.33-16.277c0-13.703,12.178-21.195,34.076-21.08v-1.17c0-4.686-1.287-13.119-12.877-13.119
			c-5.277,0-10.777,1.643-14.758,4.219l-2.344-6.793c4.684-3.045,11.475-5.037,18.619-5.037c17.334,0,21.549,11.83,21.549,23.188
			v21.199c0,4.92,0.234,9.719,0.938,13.584H640.46z M638.938,174.894c-11.242-0.232-24.006,1.758-24.006,12.766
			c0,6.676,4.447,9.838,9.721,9.838c7.377,0,12.057-4.686,13.699-9.486c0.35-1.053,0.586-2.225,0.586-3.279V174.894z"/>
		<path fill="#CC6C15" d="M665.519,162.479c0-5.854-0.115-10.656-0.469-15.338h9.02l0.465,9.131h0.355
			c3.16-5.385,8.43-10.422,17.801-10.422c7.729,0,13.582,4.686,16.041,11.361h0.236c1.754-3.162,3.98-5.621,6.322-7.377
			c3.395-2.58,7.145-3.984,12.529-3.984c7.494,0,18.621,4.922,18.621,24.596v33.375h-10.07v-32.088
			c0-10.893-3.984-17.449-12.297-17.449c-5.855,0-10.422,4.334-12.18,9.369c-0.471,1.406-0.82,3.277-0.82,5.154v35.014h-10.072
			v-33.963c0-9.018-3.979-15.574-11.826-15.574c-6.441,0-11.125,5.152-12.764,10.307c-0.586,1.521-0.822,3.279-0.822,5.035v34.195
			h-10.07V162.479z"/>
		<path fill="#F4A351" d="M763.536,125.944c6.205-0.939,13.584-1.641,21.662-1.641c14.645,0,25.066,3.398,31.975,9.836
			c7.023,6.441,11.127,15.578,11.127,28.34c0,12.885-3.984,23.426-11.363,30.684c-7.379,7.379-19.555,11.359-34.898,11.359
			c-7.26,0-13.35-0.35-18.502-0.936V125.944z M773.724,195.741c2.578,0.469,6.326,0.588,10.303,0.588
			c21.787,0,33.615-12.182,33.615-33.496c0.119-18.621-10.422-30.451-31.973-30.451c-5.27,0-9.25,0.471-11.945,1.057V195.741z"/>
		<path fill="#F4A351" d="M841.528,125.944c4.449-0.939,11.475-1.641,18.619-1.641c10.189,0,16.746,1.758,21.666,5.738
			c4.098,3.045,6.559,7.73,6.559,13.936c0,7.613-5.037,14.287-13.355,17.332v0.236c7.498,1.873,16.281,8.08,16.281,19.789
			c0,6.793-2.693,11.949-6.676,15.811c-5.504,5.037-14.404,7.377-27.285,7.377c-7.029,0-12.412-0.465-15.809-0.936V125.944z
			 M851.716,158.265h9.25c10.775,0,17.098-5.619,17.098-13.232c0-9.254-7.023-12.881-17.332-12.881c-4.684,0-7.377,0.35-9.016,0.701
			V158.265z M851.716,196.093c1.99,0.352,4.92,0.467,8.549,0.467c10.539,0,20.26-3.863,20.26-15.34
			c0-10.773-9.252-15.227-20.377-15.227h-8.432V196.093z"/>
	</g>
</g>
</svg>
