<?xml version="1.0" encoding="utf-8"?>
<!-- Generator: Adobe Illustrator 15.1.0, SVG Export Plug-In . SVG Version: 6.00 Build 0)  -->
<!DOCTYPE svg PUBLIC "-//W3C//DTD SVG 1.1//EN" "http://www.w3.org/Graphics/SVG/1.1/DTD/svg11.dtd">
<svg version="1.1" id="Layer_2" xmlns="http://www.w3.org/2000/svg" xmlns:xlink="http://www.w3.org/1999/xlink" x="0px" y="0px"
	 width="656px" height="668.456px" viewBox="0 0 656 668.456" enable-background="new 0 0 656 668.456" xml:space="preserve">
<g>
	<path fill="#FFFFFF" d="M124.393,562.761h-21.959v20.367h24.475v6.119H95.143v-56.49h30.508v6.119h-23.217v17.852h21.959V562.761z"
		/>
	<path fill="#FFFFFF" d="M144.758,537.032v11.648h10.561v5.617h-10.561v21.873c0,5.027,1.424,7.879,5.531,7.879
		c1.928,0,3.354-0.252,4.273-0.502l0.338,5.529c-1.428,0.586-3.689,1.006-6.539,1.006c-3.436,0-6.203-1.088-7.963-3.1
		c-2.096-2.18-2.848-5.785-2.848-10.561v-22.125h-6.287v-5.617h6.287v-9.721L144.758,537.032z"/>
	<path fill="#FFFFFF" d="M163.613,529.739h7.377v25.313h0.166c1.174-2.096,3.016-3.939,5.279-5.197
		c2.18-1.258,4.779-2.096,7.545-2.096c5.447,0,14.164,3.354,14.164,17.35v24.139h-7.375v-23.301c0-6.535-2.434-12.068-9.389-12.068
		c-4.777,0-8.549,3.354-9.891,7.375c-0.418,1.006-0.5,2.096-0.5,3.521v24.473h-7.377V529.739z"/>
	<path fill="#FFFFFF" d="M214.232,570.304c0.168,9.973,6.539,14.08,13.914,14.08c5.279,0,8.465-0.922,11.229-2.096l1.258,5.279
		c-2.598,1.176-7.039,2.516-13.492,2.516c-12.488,0-19.947-8.213-19.947-20.449s7.207-21.875,19.025-21.875
		c13.242,0,16.762,11.652,16.762,19.111c0,1.508-0.168,2.682-0.252,3.434H214.232z M235.855,565.024
		c0.086-4.693-1.926-11.984-10.225-11.984c-7.457,0-10.727,6.871-11.313,11.984H235.855z"/>
	<path fill="#FFFFFF" d="M252.113,561.337c0-4.779-0.084-8.885-0.336-12.656h6.455l0.25,7.963h0.336
		c1.842-5.447,6.285-8.885,11.23-8.885c0.838,0,1.426,0.084,2.096,0.252v6.955c-0.754-0.166-1.512-0.25-2.516-0.25
		c-5.195,0-8.883,3.938-9.889,9.471c-0.168,1.006-0.336,2.18-0.336,3.436v21.625h-7.291V561.337z"/>
	<path fill="#FFFFFF" d="M278.764,580.362c3.27,2.01,8.045,3.688,13.074,3.688c7.461,0,11.816-3.939,11.816-9.639
		c0-5.279-3.018-8.297-10.643-11.23c-9.221-3.27-14.918-8.045-14.918-16.008c0-8.801,7.291-15.338,18.27-15.338
		c5.783,0,9.973,1.342,12.488,2.766l-2.012,5.951c-1.844-1.006-5.615-2.68-10.727-2.68c-7.711,0-10.645,4.605-10.645,8.463
		c0,5.281,3.436,7.877,11.23,10.896c9.555,3.686,14.416,8.295,14.416,16.592c0,8.717-6.453,16.26-19.781,16.26
		c-5.447,0-11.396-1.592-14.414-3.604L278.764,580.362z"/>
	<path fill="#FFFFFF" d="M350.252,587.737c-1.926,1.006-6.203,2.346-11.65,2.346c-12.236,0-20.199-8.295-20.199-20.701
		c0-12.486,8.549-21.539,21.791-21.539c4.357,0,8.213,1.09,10.227,2.096l-1.678,5.699c-1.76-1.006-4.525-1.926-8.549-1.926
		c-9.301,0-14.33,6.871-14.33,15.336c0,9.387,6.033,15.17,14.078,15.17c4.191,0,6.957-1.09,9.053-2.012L350.252,587.737z"/>
	<path fill="#FFFFFF" d="M381.344,589.247l-0.586-5.113h-0.25c-2.264,3.186-6.623,6.033-12.408,6.033
		c-8.211,0-12.4-5.783-12.4-11.648c0-9.807,8.715-15.17,24.387-15.086v-0.838c0-3.354-0.922-9.387-9.217-9.387
		c-3.775,0-7.711,1.172-10.561,3.018l-1.678-4.863c3.352-2.178,8.213-3.604,13.326-3.604c12.404,0,15.422,8.467,15.422,16.596v15.17
		c0,3.52,0.166,6.955,0.67,9.723H381.344z M380.254,568.544c-8.045-0.166-17.18,1.258-17.18,9.137c0,4.777,3.186,7.041,6.957,7.041
		c5.279,0,8.629-3.355,9.805-6.789c0.25-0.756,0.418-1.592,0.418-2.35V568.544z"/>
	<path fill="#FFFFFF" d="M399.277,559.659c0-4.189-0.084-7.627-0.336-10.979h6.455l0.334,6.537h0.252
		c2.264-3.855,6.033-7.459,12.738-7.459c5.533,0,9.723,3.354,11.482,8.131h0.168c1.258-2.264,2.85-4.023,4.525-5.279
		c2.43-1.848,5.113-2.852,8.967-2.852c5.365,0,13.326,3.52,13.326,17.602v23.887h-7.205v-22.965c0-7.795-2.854-12.488-8.803-12.488
		c-4.189,0-7.457,3.102-8.715,6.707c-0.336,1.004-0.588,2.344-0.588,3.686v25.061h-7.207V564.94c0-6.453-2.85-11.146-8.467-11.146
		c-4.609,0-7.959,3.688-9.133,7.375c-0.42,1.09-0.588,2.348-0.588,3.605v24.473h-7.207V559.659z"/>
	<path fill="#FFFFFF" d="M469.424,533.513c4.443-0.672,9.723-1.174,15.504-1.174c10.479,0,17.938,2.432,22.881,7.039
		c5.029,4.609,7.965,11.148,7.965,20.281c0,9.223-2.854,16.764-8.133,21.961c-5.279,5.279-13.996,8.127-24.977,8.127
		c-5.195,0-9.553-0.248-13.24-0.67V533.513z M476.715,583.462c1.844,0.336,4.527,0.42,7.375,0.42
		c15.59,0,24.055-8.717,24.055-23.971c0.084-13.324-7.459-21.791-22.881-21.791c-3.771,0-6.619,0.338-8.549,0.756V583.462z"/>
	<path fill="#FFFFFF" d="M525.238,533.513c3.186-0.672,8.215-1.174,13.324-1.174c7.295,0,11.986,1.258,15.506,4.107
		c2.934,2.178,4.695,5.531,4.695,9.973c0,5.447-3.605,10.225-9.557,12.404v0.168c5.365,1.34,11.65,5.783,11.65,14.164
		c0,4.859-1.93,8.547-4.775,11.313c-3.941,3.605-10.309,5.279-19.529,5.279c-5.029,0-8.883-0.332-11.314-0.67V533.513z
		 M532.529,556.644h6.621c7.711,0,12.236-4.023,12.236-9.471c0-6.621-5.029-9.219-12.402-9.219c-3.354,0-5.281,0.25-6.455,0.504
		V556.644z M532.529,583.716c1.426,0.25,3.521,0.334,6.119,0.334c7.543,0,14.5-2.768,14.5-10.979
		c0-7.711-6.621-10.896-14.586-10.896h-6.033V583.716z"/>
</g>
<g>
	<g>
		<path fill="#FFFFFF" d="M323.789,385.746l-120.178-71.491c2.518,8.653,5.857,16.952,10.025,24.756l-0.018,0.01l0.145,0.241
			c1.873,3.496,3.912,6.888,6.092,10.183L323.789,494.58V385.746z"/>
		<path fill="#FFFFFF" d="M452.4,314.255l-120.191,71.5v108.844l103.947-145.154c2.18-3.295,4.221-6.687,6.094-10.183l0.143-0.241
			l-0.016-0.01C446.543,331.207,449.885,322.908,452.4,314.255z"/>
	</g>
	<g>
		<path fill="#FFFFFF" d="M332.209,366.56l124.109-73.837l-47.168-78.434l-42.432,25.247l-34.51,53.901V366.56z M396.818,258.165
			l14.334,25.358l-50.836,31.382L396.818,258.165z"/>
		<polygon fill="#FFFFFF" points="323.789,293.48 289.271,239.528 246.852,214.289 199.682,292.723 323.789,366.559 		"/>
	</g>
	<g>
		<polygon fill="#FFFFFF" points="332.209,86.442 332.209,239.999 400.252,199.521 		"/>
		<polygon fill="#FFFFFF" points="323.789,86.444 255.768,199.536 323.789,240 		"/>
	</g>
</g>
</svg>
