<?xml version="1.0" encoding="utf-8"?>
<!-- Generator: Adobe Illustrator 15.1.0, SVG Export Plug-In . SVG Version: 6.00 Build 0)  -->
<!DOCTYPE svg PUBLIC "-//W3C//DTD SVG 1.1//EN" "http://www.w3.org/Graphics/SVG/1.1/DTD/svg11.dtd">
<svg version="1.1" id="Layer_2" xmlns="http://www.w3.org/2000/svg" xmlns:xlink="http://www.w3.org/1999/xlink" x="0px" y="0px"
	 width="951.979px" height="321.032px" viewBox="0 0 951.979 321.032" enable-background="new 0 0 951.979 321.032"
	 xml:space="preserve">
<g>
	<g>
		<path fill="#FFFFFF" d="M281.424,166.815H250.74v28.457h34.197v8.551h-44.387v-78.936h42.629v8.551H250.74v24.947h30.684V166.815z
			"/>
		<path fill="#FFFFFF" d="M309.879,130.86v16.281h14.756v7.844h-14.756v30.566c0,7.027,1.986,11.01,7.727,11.01
			c2.697,0,4.689-0.352,5.975-0.703l0.471,7.729c-1.99,0.818-5.154,1.408-9.137,1.408c-4.803,0-8.668-1.527-11.129-4.336
			c-2.926-3.045-3.977-8.08-3.977-14.752v-30.922h-8.785v-7.844h8.785v-13.586L309.879,130.86z"/>
		<path fill="#FFFFFF" d="M336.227,120.673h10.307v35.369h0.234c1.639-2.928,4.215-5.506,7.375-7.262
			c3.047-1.756,6.678-2.93,10.541-2.93c7.613,0,19.793,4.686,19.793,24.242v33.73h-10.303v-32.561c0-9.131-3.4-16.863-13.117-16.863
			c-6.676,0-11.949,4.688-13.822,10.307c-0.584,1.408-0.701,2.928-0.701,4.92v34.197h-10.307V120.673z"/>
		<path fill="#FFFFFF" d="M406.961,177.354c0.23,13.934,9.133,19.674,19.438,19.674c7.377,0,11.828-1.287,15.691-2.928l1.758,7.379
			c-3.631,1.641-9.838,3.516-18.852,3.516c-17.449,0-27.875-11.479-27.875-28.576c0-17.1,10.07-30.568,26.586-30.568
			c18.502,0,23.418,16.281,23.418,26.703c0,2.107-0.232,3.748-0.352,4.801H406.961z M437.172,169.976
			c0.117-6.557-2.693-16.744-14.285-16.744c-10.422,0-14.99,9.602-15.807,16.744H437.172z"/>
		<path fill="#FFFFFF" d="M459.887,164.827c0-6.678-0.115-12.416-0.469-17.686h9.018l0.352,11.125h0.467
			c2.578-7.613,8.785-12.416,15.695-12.416c1.172,0,1.992,0.117,2.93,0.352v9.723c-1.057-0.234-2.111-0.354-3.512-0.354
			c-7.264,0-12.42,5.504-13.822,13.234c-0.232,1.406-0.471,3.043-0.471,4.801v30.217h-10.188V164.827z"/>
		<path fill="#FFFFFF" d="M497.129,191.407c4.564,2.813,11.24,5.154,18.268,5.154c10.422,0,16.512-5.506,16.512-13.469
			c0-7.377-4.217-11.594-14.871-15.693c-12.883-4.566-20.848-11.242-20.848-22.365c0-12.297,10.189-21.432,25.529-21.432
			c8.082,0,13.936,1.873,17.451,3.863l-2.809,8.313c-2.578-1.402-7.848-3.744-14.994-3.744c-10.771,0-14.871,6.439-14.871,11.828
			c0,7.377,4.803,11.006,15.691,15.225c13.352,5.15,20.145,11.594,20.145,23.186c0,12.18-9.018,22.723-27.639,22.723
			c-7.613,0-15.928-2.229-20.141-5.039L497.129,191.407z"/>
		<path fill="#FFFFFF" d="M597.02,201.714c-2.691,1.406-8.668,3.281-16.279,3.281c-17.1,0-28.225-11.596-28.225-28.93
			c0-17.449,11.945-30.098,30.451-30.098c6.086,0,11.475,1.523,14.289,2.928l-2.344,7.963c-2.459-1.404-6.326-2.689-11.945-2.689
			c-13,0-20.029,9.6-20.029,21.432c0,13.113,8.434,21.195,19.674,21.195c5.857,0,9.721-1.523,12.65-2.814L597.02,201.714z"/>
		<path fill="#FFFFFF" d="M640.465,203.823l-0.818-7.143h-0.354c-3.16,4.447-9.252,8.43-17.332,8.43
			c-11.477,0-17.332-8.082-17.332-16.277c0-13.703,12.18-21.199,34.078-21.08v-1.172c0-4.684-1.287-13.117-12.879-13.117
			c-5.271,0-10.775,1.639-14.756,4.219l-2.344-6.797c4.684-3.043,11.473-5.035,18.621-5.035c17.332,0,21.545,11.832,21.545,23.189
			v21.197c0,4.92,0.234,9.719,0.938,13.586H640.465z M638.941,174.896c-11.242-0.234-24.006,1.756-24.006,12.766
			c0,6.676,4.451,9.836,9.721,9.836c7.379,0,12.059-4.686,13.699-9.486c0.352-1.051,0.586-2.223,0.586-3.279V174.896z"/>
		<path fill="#FFFFFF" d="M665.523,162.481c0-5.855-0.115-10.66-0.471-15.34h9.02l0.467,9.131h0.354
			c3.162-5.387,8.432-10.422,17.799-10.422c7.73,0,13.586,4.686,16.045,11.363h0.234c1.758-3.164,3.982-5.621,6.324-7.377
			c3.395-2.582,7.145-3.986,12.529-3.986c7.496,0,18.623,4.922,18.623,24.594v33.379h-10.072v-32.09
			c0-10.893-3.984-17.449-12.297-17.449c-5.855,0-10.424,4.332-12.18,9.371c-0.471,1.402-0.818,3.275-0.818,5.15v35.018h-10.074
			v-33.965c0-9.018-3.98-15.574-11.828-15.574c-6.439,0-11.123,5.152-12.762,10.307c-0.586,1.523-0.822,3.281-0.822,5.035v34.197
			h-10.07V162.481z"/>
		<path fill="#FFFFFF" d="M763.541,125.944c6.207-0.939,13.582-1.641,21.664-1.641c14.641,0,25.063,3.398,31.971,9.838
			c7.027,6.439,11.127,15.576,11.127,28.34c0,12.883-3.984,23.426-11.361,30.684c-7.379,7.377-19.559,11.359-34.9,11.359
			c-7.26,0-13.352-0.352-18.5-0.938V125.944z M773.729,195.741c2.574,0.469,6.324,0.586,10.307,0.586
			c21.781,0,33.611-12.18,33.611-33.494c0.119-18.621-10.422-30.449-31.973-30.449c-5.27,0-9.252,0.469-11.945,1.055V195.741z"/>
		<path fill="#FFFFFF" d="M841.533,125.944c4.447-0.939,11.475-1.641,18.617-1.641c10.191,0,16.746,1.758,21.666,5.74
			c4.1,3.045,6.559,7.729,6.559,13.934c0,7.615-5.035,14.289-13.354,17.332v0.236c7.496,1.873,16.281,8.08,16.281,19.789
			c0,6.795-2.695,11.949-6.676,15.813c-5.504,5.035-14.402,7.377-27.287,7.377c-7.025,0-12.412-0.467-15.807-0.938V125.944z
			 M851.719,158.267h9.252c10.773,0,17.098-5.621,17.098-13.232c0-9.256-7.025-12.883-17.332-12.883
			c-4.686,0-7.375,0.35-9.018,0.701V158.267z M851.719,196.093c1.992,0.352,4.92,0.469,8.549,0.469
			c10.541,0,20.262-3.865,20.262-15.342c0-10.775-9.252-15.225-20.379-15.225h-8.432V196.093z"/>
	</g>
	<g>
		<g>
			<path fill="#FFFFFF" d="M130.014,213.72l-67.141-39.943c1.406,4.836,3.273,9.471,5.6,13.832l-0.008,0.004l0.08,0.137
				c1.045,1.951,2.186,3.848,3.402,5.688l58.066,81.088V213.72z"/>
			<path fill="#FFFFFF" d="M201.869,173.776l-67.15,39.945v60.813l58.078-81.098c1.217-1.84,2.357-3.736,3.402-5.688l0.08-0.137
				l-0.01-0.004C198.598,183.247,200.465,178.612,201.869,173.776z"/>
		</g>
		<g>
			<path fill="#FFFFFF" d="M134.719,202.999l69.342-41.252l-26.355-43.82L154,132.032l-19.281,30.113V202.999z M170.818,142.438
				l8.006,14.168l-28.4,17.533L170.818,142.438z"/>
			<polygon fill="#FFFFFF" points="130.014,162.171 110.73,132.026 87.033,117.927 60.676,161.747 130.014,202.999 			"/>
		</g>
		<g>
			<polygon fill="#FFFFFF" points="134.719,46.497 134.719,132.29 172.734,109.675 			"/>
			<polygon fill="#FFFFFF" points="130.014,46.499 92.012,109.685 130.014,132.29 			"/>
		</g>
	</g>
</g>
</svg>
